<!-- <svg width="35" height="35" viewBox="0 0 24 24" fill="none" xmlns="http://www.w3.org/2000/svg">
<path d="M11.01 20.02C15.9861 20.02 20.02 15.9861 20.02 11.01C20.02 6.03391 15.9861 2 11.01 2C6.03391 2 2 6.03391 2 11.01C2 15.9861 6.03391 20.02 11.01 20.02Z" fill="#CDD3DA"/>
<path d="M21.9901 18.95C21.6601 18.34 20.9601 18 20.0201 18C19.3101 18 18.7001 18.29 18.3401 18.79C17.9801 19.29 17.9001 19.96 18.1201 20.63C18.5501 21.93 19.3001 22.22 19.7101 22.27C19.7701 22.28 19.8301 22.28 19.9001 22.28C20.3401 22.28 21.0201 22.09 21.6801 21.1C22.2101 20.33 22.3101 19.56 21.9901 18.95Z" fill="#CDD3DA"/>
</svg> -->

<svg width="24" height="24" viewBox="0 0 24 24" fill="none" xmlns="http://www.w3.org/2000/svg">
<path d="M0.332031 10.5794C0.332031 4.90466 4.94808 0.333984 10.6073 0.333984C16.2654 0.333984 20.8825 4.90466 20.8825 10.5794C20.8847 12.9207 20.0829 15.1902 18.6138 17.0004L23.3587 21.7963C23.5577 22.0045 23.6678 22.2834 23.6653 22.5729C23.6628 22.8624 23.548 23.1393 23.3454 23.344C23.1429 23.5487 22.869 23.6648 22.5826 23.6673C22.2962 23.6698 22.0202 23.5585 21.8142 23.3574L17.0595 18.5516C15.2261 20.027 12.9508 20.8282 10.6073 20.8237C4.94917 20.8237 0.332031 16.2541 0.332031 10.5794ZM10.6073 2.54204C6.12339 2.54204 2.51662 6.15663 2.51662 10.5794C2.51662 15.0021 6.12339 18.6156 10.6073 18.6156C15.0911 18.6156 18.6979 15.0021 18.6979 10.5783C18.6979 6.15663 15.0911 2.54204 10.6073 2.54204Z" fill="white" fill-opacity="0.5"/>
</svg>

